<?xml version="1.0" encoding="UTF-8" standalone="no" ?>
<!DOCTYPE svg PUBLIC "-//W3C//DTD SVG 1.1//EN" "http://www.w3.org/Graphics/SVG/1.1/DTD/svg11.dtd">
<svg xmlns="http://www.w3.org/2000/svg" xmlns:xlink="http://www.w3.org/1999/xlink" version="1.1" width="500" height="500" viewBox="0 0 500 500" xml:space="preserve">
<desc>Created with Fabric.js 3.6.3</desc>
<defs>
</defs>
<g transform="matrix(1 0 0 1 238.3833704847408 302.2821719457014)" style=""  ><path fill="#ff5757" opacity="1" d="M-174.15-24.65C-179.46-29.51-185.58-32.03-193.05-32.03C-208.89-32.03-221.67-18.53-221.67-0.08C-221.67 19.18-208.17 29.44-194.22 29.44C-181.98 29.44-173.34 21.61-173.34 21.61L-175.32 14.95C-175.32 14.95-184.59 22.51-192.78 22.51C-202.86 22.51-213.03 13.51-213.03-0.98C-213.03-13.49-205.02-25.37-193.41-25.37C-187.47-25.37-182.52-22.94-178.29-18.53Z"/><path fill="#ff5757" opacity="1" d="M-170.37 28.27L-162.54 28.27L-156.69 12.79L-134.64 12.79L-128.97 28.27L-119.16 28.27L-123.66 18.37L-142.02-32.12L-147.51-30.95ZM-146.34-14.66L-145.26-18.26L-144.36-14.75L-136.89 5.95L-154.26 5.95Z"/><path fill="#ff5757" opacity="1" d="M-60.57-30.95L-69.12-30.95L-67.95-22.67L-67.95 12.34L-71.91 6.49L-104.94-30.95L-110.43-30.95L-109.26-22.67L-109.26 28.27L-100.98 28.27L-101.88 21.52L-101.88-15.38L-98.01-9.53L-64.26 28.27L-60.03 28.27L-60.57 21.52Z"/><path fill="#ff5757" opacity="1" d="M0.45-0.98L-8.82-0.98L-7.29 5.68L-7.38 21.43C-7.38 21.43-13.50 22.96-18.36 22.96C-28.62 22.96-38.79 13.60-38.79-0.98C-38.79-13.49-30.33-25.37-19.17-25.37C-13.23-25.37-8.28-22.94-4.05-18.53L0.09-24.65C-5.22-29.51-11.79-32.03-19.26-32.03C-35.10-32.03-47.43-18.53-47.43-0.08C-47.43 19.18-33.93 29.44-19.98 29.44C-8.55 29.44 0.54 26.02 0.54 26.02Z"/><path fill="#ff5757" opacity="1" d="M59.76 28.27L41.31 3.79C48.42 0.46 52.83-6.11 52.83-13.13C52.83-25.28 43.29-30.95 33.39-30.95L16.65-30.95L17.82-22.67L17.82 28.27L26.82 28.27L25.92 21.52L25.92 6.13C31.23 6.13 32.49 6.13 33.48 6.04L49.32 28.27ZM25.92-0.53L25.92-24.29L31.77-24.29C38.43-24.29 44.28-20.51 44.28-13.13C44.28-6.29 38.43-0.53 31.77-0.53Z"/><path fill="#ff5757" opacity="1" d="M70.74 28.27L99.54 28.27L101.34 21.61L78.84 21.61L78.84 1.27L95.85 1.27L97.65-5.39L78.84-5.39L78.84-24.29L100.35-24.29L100.35-30.95L69.57-30.95L70.74-22.67Z"/><path fill="#ff5757" opacity="1" d="M123.30-30.95L114.03-30.95L115.20-22.67L115.20 24.85C115.20 32.41 111.51 38.89 105.66 38.89C104.22 38.89 102.78 38.44 101.25 37.72L100.80 45.64C102.60 46.00 104.22 46.18 105.66 46.18C117.99 46.18 123.30 35.92 123.30 24.85Z"/><path fill="#ff5757" opacity="1" d="M132.21 28.27L140.04 28.27L145.89 12.79L167.94 12.79L173.61 28.27L183.42 28.27L178.92 18.37L160.56-32.12L155.07-30.95ZM156.24-14.66L157.32-18.26L158.22-14.75L165.69 5.95L148.32 5.95Z"/><path fill="#ff5757" opacity="1" d="M193.86 28.27L223.38 28.27L225.18 21.43L201.96 21.43L201.96-30.95L192.69-30.95L193.86-22.67Z"/></g><g transform="matrix(3.305397191524734 0 0 3.305397191524734 238.13337048474082 139.50833396614308)"  >
<g style=""   >
		<g transform="matrix(1 0 0 1 0 29.306053439760632)" clip-path="url(#CLIPPATH_49598)"  >
<clipPath id="CLIPPATH_49598" >
	<rect transform="matrix(1 0 0 1 0 -29.306053439760635)" x="-66.66666666666667" y="-37.360613226906" rx="0" ry="0" width="133.33333333333334" height="74.721226453812" />
</clipPath>
<g style=""   >
		<g transform="matrix(1.3333333333333335 0 0 1.3333333333333335 -0.009806666666690944 34.82303909181494)"  >
<path style="stroke: none; stroke-width: 1; stroke-dasharray: none; stroke-linecap: butt; stroke-dashoffset: 0; stroke-linejoin: miter; stroke-miterlimit: 4; fill: rgb(255,87,87); fill-rule: nonzero; opacity: 1;"  transform=" translate(-49.99264499999998, -76.1172793188612)" d="m 23.328 74.844 c 0.078125 0.085938 0.14453 0.17969 0.20312 0.28125 c 0.015625 0.015625 0.03125 0.015625 0.03125 0.03125 c 1.3945 1.75 2.9648 3.3555 4.6875 4.7812 c 0.089844 0.0625 0.17578 0.13672 0.25 0.21875 c 0.007812 0.007812 0.019531 0.015625 0.03125 0.015625 c 2.4219 1.9922 5.1094 3.6328 7.9844 4.875 c 0.015625 0 0.015625 0 0.03125 0.015625 c 0.050781 0.015625 0.097656 0.035156 0.14062 0.0625 c 0.015625 -0.003906 0.035156 0.003906 0.046875 0.015625 c 8.5195 3.6055 18.141 3.582 26.641 -0.0625 c 2.9297 -1.2578 5.6641 -2.9258 8.125 -4.9531 l 0.23438 -0.1875 c 1.7422 -1.457 3.332 -3.0859 4.75 -4.8594 c 0.050781 -0.085937 0.11719 -0.16406 0.1875 -0.23438 c 1.6953 -2.1758 3.125 -4.5469 4.25 -7.0625 c -0.51953 -1.1523 -1.1016 -2.2734 -1.75 -3.3594 c -2.8984 8.0625 -9 14.566 -16.863 17.965 c -7.8633 3.4023 -16.781 3.4023 -24.641 -0.003907 c -7.8633 -3.4062 -13.961 -9.9141 -16.855 -17.977 c -0.65625 1.0859 -1.2422 2.2109 -1.75 3.375 c 1.1172 2.5078 2.5391 4.8711 4.2344 7.0312 c 0.015625 0.015625 0.015625 0.03125 0.03125 0.03125 z" stroke-linecap="round" />
</g>
		<g transform="matrix(1.3333333333333335 0 0 1.3333333333333335 -0.0107666666666546 19.68839086571585)"  >
<path style="stroke: none; stroke-width: 1; stroke-dasharray: none; stroke-linecap: butt; stroke-dashoffset: 0; stroke-linejoin: miter; stroke-miterlimit: 4; fill: rgb(255,87,87); fill-rule: nonzero; opacity: 1;"  transform=" translate(-49.991925, -64.76629314928688)" d="m 25.812 57.891 c -0.09375 0.13281 -0.21094 0.25 -0.34375 0.34375 h -0.015625 c -0.85547 0.90234 -1.6602 1.8516 -2.4062 2.8438 c 2.1133 7.9844 7.6602 14.617 15.141 18.113 s 16.129 3.4961 23.609 0 s 13.027 -10.129 15.141 -18.113 c -0.78906 -1.043 -1.6445 -2.0352 -2.5625 -2.9688 c -0.015625 -0.015625 -0.03125 -0.046875 -0.0625 -0.0625 c -6.3438 -6.5664 -15.07 -10.293 -24.203 -10.328 c -9.1289 -0.035156 -17.887 3.6211 -24.281 10.141 c 0 0.015625 0 0.03125 -0.015625 0.03125 z" stroke-linecap="round" />
</g>
		<g transform="matrix(1.3333333333333335 0 0 1.3333333333333335 -50.28315666666668 41.64587454414918)"  >
<path style="stroke: none; stroke-width: 1; stroke-dasharray: none; stroke-linecap: butt; stroke-dashoffset: 0; stroke-linejoin: miter; stroke-miterlimit: 4; fill: rgb(255,87,87); fill-rule: nonzero; opacity: 1;"  transform=" translate(-12.287632499999997, -81.23440590811188)" d="m 4.6875 88.078 c 0.41406 0 0.8125 -0.16406 1.1094 -0.45312 l 10.094 -10.109 h 5.5625 c -0.82812 -1 -1.6055 -2.043 -2.3281 -3.125 h -3.875 c -0.41406 -0.003906 -0.81641 0.16016 -1.1094 0.45312 l -10.562 10.562 c -0.60938 0.61328 -0.60938 1.6055 0 2.2188 c 0.29688 0.28906 0.69531 0.45312 1.1094 0.45312 z" stroke-linecap="round" />
</g>
		<g transform="matrix(1.3333333333333335 0 0 1.3333333333333335 -43.37553500000001 48.27072121081582)"  >
<path style="stroke: none; stroke-width: 1; stroke-dasharray: none; stroke-linecap: butt; stroke-dashoffset: 0; stroke-linejoin: miter; stroke-miterlimit: 4; fill: rgb(255,87,87); fill-rule: nonzero; opacity: 1;"  transform=" translate(-17.468348749999997, -86.20304090811186)" d="m 18.5 80.125 l -9.9062 9.9375 c -0.60547 0.60938 -0.60547 1.5938 0 2.2031 c 0.28906 0.30078 0.6875 0.46875 1.1016 0.46875 c 0.41406 0 0.8125 -0.16797 1.1016 -0.46875 l 9.4531 -9.4688 h 6.5469 c -1.2031 -0.97266 -2.3477 -2.0156 -3.4219 -3.125 h -3.7656 c -0.41406 -0.003906 -0.81641 0.16016 -1.1094 0.45312 z" stroke-linecap="round" />
</g>
		<g transform="matrix(1.3333333333333335 0 0 1.3333333333333335 -32.71758643754129 53.66680121081585)"  >
<path style="stroke: none; stroke-width: 1; stroke-dasharray: none; stroke-linecap: butt; stroke-dashoffset: 0; stroke-linejoin: miter; stroke-miterlimit: 4; fill: rgb(255,87,87); fill-rule: nonzero; opacity: 1;"  transform=" translate(-25.46181017184403, -90.25010090811188)" d="m 16.844 95.547 c 0.41797 0 0.81641 -0.16797 1.1094 -0.46875 l 6.9844 -7 h 10.703 c -2.0508 -0.85938 -4.0156 -1.9062 -5.875 -3.125 h -5.4688 c -0.41406 -0.003906 -0.81641 0.16016 -1.1094 0.45312 l -7.4531 7.4688 c -0.44141 0.44922 -0.57422 1.1211 -0.33203 1.7031 c 0.24219 0.58203 0.80859 0.96484 1.4414 0.96875 z" stroke-linecap="round" />
</g>
		<g transform="matrix(1.3333333333333335 0 0 1.3333333333333335 50.27302333333335 41.64673500000001)"  >
<path style="stroke: none; stroke-width: 1; stroke-dasharray: none; stroke-linecap: butt; stroke-dashoffset: 0; stroke-linejoin: miter; stroke-miterlimit: 4; fill: rgb(255,87,87); fill-rule: nonzero; opacity: 1;"  transform=" translate(-87.70476749999999, -81.23505125)" d="m 84.734 74.391 h -3.875 c -0.73438 1.0781 -1.5 2.125 -2.3281 3.125 h 5.5469 l 10.125 10.109 c 0.61719 0.60547 1.6016 0.60547 2.2188 0 c 0.60938 -0.61328 0.60938 -1.6055 0 -2.2188 l -10.594 -10.562 c -0.28906 -0.29297 -0.68359 -0.45703 -1.0938 -0.45312 z" stroke-linecap="round" />
</g>
		<g transform="matrix(1.3333333333333335 0 0 1.3333333333333335 43.3542016666667 48.27036111710207)"  >
<path style="stroke: none; stroke-width: 1; stroke-dasharray: none; stroke-linecap: butt; stroke-dashoffset: 0; stroke-linejoin: miter; stroke-miterlimit: 4; fill: rgb(255,87,87); fill-rule: nonzero; opacity: 1;"  transform=" translate(-82.51565125000002, -86.20277083782655)" d="m 90.312 92.734 c 0.41406 0 0.80859 -0.17188 1.0938 -0.46875 c 0.60547 -0.60938 0.60547 -1.5938 0 -2.2031 l -9.9219 -9.9375 c -0.29297 -0.29297 -0.69531 -0.45703 -1.1094 -0.45312 h -3.7812 c -1.0703 1.1133 -2.2148 2.1562 -3.4219 3.125 h 6.5625 l 9.4688 9.4688 c 0.29297 0.30078 0.69141 0.46875 1.1094 0.46875 z" stroke-linecap="round" />
</g>
		<g transform="matrix(1.3333333333333335 0 0 1.3333333333333335 32.66942333333333 53.666887783768765)"  >
<path style="stroke: none; stroke-width: 1; stroke-dasharray: none; stroke-linecap: butt; stroke-dashoffset: 0; stroke-linejoin: miter; stroke-miterlimit: 4; fill: rgb(255,87,87); fill-rule: nonzero; opacity: 1;"  transform=" translate(-74.5020675, -90.25016583782656)" d="m 82.047 95.094 c 0.29688 0.28906 0.69531 0.45312 1.1094 0.45312 c 0.41406 -0.003906 0.8125 -0.16797 1.1094 -0.45312 c 0.60938 -0.61328 0.60938 -1.6055 0 -2.2188 l -7.4688 -7.4688 c -0.29297 -0.29297 -0.69531 -0.45703 -1.1094 -0.45312 h -5.4844 c -1.875 1.2227 -3.8555 2.2695 -5.9219 3.125 h 10.766 z" stroke-linecap="round" />
</g>
		<g transform="matrix(1.3333333333333335 0 0 1.3333333333333335 -42.752370233950856 -35.606254480050985)"  >
<path style="stroke: none; stroke-width: 1; stroke-dasharray: none; stroke-linecap: butt; stroke-dashoffset: 0; stroke-linejoin: miter; stroke-miterlimit: 4; fill: rgb(255,87,87); fill-rule: nonzero; opacity: 1;"  transform=" translate(-17.93572232453686, -23.295309139961763)" d="m 10.781 35 c 0.089844 0.0625 0.18359 0.12109 0.28125 0.17188 c 0 0.007813 0.007812 0.015625 0.015625 0.015625 c 1.4805 0.83203 3.1016 1.3828 4.7812 1.625 c 2.3516 0.55078 4.8281 0.035156 6.7656 -1.4062 c 2.875 -2.25 4.7031 -6.9219 5.4531 -13.875 c -3.7734 1.1055 -7.0391 3.5078 -9.2188 6.7812 c -0.015625 0.015625 -0.03125 0.046875 -0.046875 0.0625 v 0.015625 h -0.015625 v 0.03125 h -0.015625 v 0.015625 h -0.015625 v 0.015625 h -0.015625 c 0 0.023437 -0.011719 0.046875 -0.03125 0.0625 l -0.046875 0.046875 c 0 0.007812 -0.007813 0.015625 -0.015625 0.015625 l -0.015625 0.015625 c -0.53516 0.57812 -1.418 0.66406 -2.0586 0.20312 c -0.63672 -0.46094 -0.83594 -1.3242 -0.45703 -2.0156 c 2.2812 -5.5781 1.375 -13.062 0.57812 -17.219 c -4.2969 5.7656 -10.672 16.266 -8.4531 22.312 c 0.46484 1.2969 1.3594 2.3984 2.5312 3.125 z" stroke-linecap="round" />
</g>
		<g transform="matrix(1.3333333333333335 0 0 1.3333333333333335 -39.66666 12.854666666666668)"  >
<path style="stroke: none; stroke-width: 1; stroke-dasharray: none; stroke-linecap: butt; stroke-dashoffset: 0; stroke-linejoin: miter; stroke-miterlimit: 4; fill: rgb(255,87,87); fill-rule: nonzero; opacity: 1;"  transform=" translate(-20.250005, -59.641)" d="m 20.375 59.516 c -0.015625 0.003906 -0.035156 -0.003906 -0.046875 -0.015625 c -0.074219 0.089844 -0.14062 0.18359 -0.20312 0.28125 c 0.074219 -0.097656 0.16016 -0.18359 0.25 -0.26562 z" stroke-linecap="round" />
</g>
		<g transform="matrix(1.3333333333333335 0 0 1.3333333333333335 -44.62560516236836 -1.1353333333333353)"  >
<path style="stroke: none; stroke-width: 1; stroke-dasharray: none; stroke-linecap: butt; stroke-dashoffset: 0; stroke-linejoin: miter; stroke-miterlimit: 4; fill: rgb(255,87,87); fill-rule: nonzero; opacity: 1;"  transform=" translate(-16.530796128223724, -49.1485)" d="m 11.359 38.797 c -0.76562 7.3281 -0.10938 17.766 8.9688 20.703 c 0.5 -0.6875 1.0391 -1.3516 1.6094 -1.9844 c -7.1875 -3.8281 -7.8438 -12.781 -7.5938 -17.812 c -1.0195 -0.21875 -2.0156 -0.51953 -2.9844 -0.90625 z" stroke-linecap="round" />
</g>
		<g transform="matrix(1.3333333333333335 0 0 1.3333333333333335 -16.874511574606796 -8.562164042410899)"  >
<path style="stroke: none; stroke-width: 1; stroke-dasharray: none; stroke-linecap: butt; stroke-dashoffset: 0; stroke-linejoin: miter; stroke-miterlimit: 4; fill: rgb(255,87,87); fill-rule: nonzero; opacity: 1;"  transform=" translate(-37.3441163190449, -43.578376968191826)" d="m 37.344 46.516 c 1.1875 0 2.2578 -0.71484 2.7148 -1.8125 c 0.45312 -1.0977 0.20312 -2.3633 -0.63672 -3.2031 s -2.1055 -1.0898 -3.2031 -0.63672 c -1.0977 0.45703 -1.8125 1.5273 -1.8125 2.7148 c 0.003906 1.6211 1.3164 2.9336 2.9375 2.9375 z" stroke-linecap="round" />
</g>
		<g transform="matrix(1.3333333333333335 0 0 1.3333333333333335 42.73806991443958 -35.6061776200397)"  >
<path style="stroke: none; stroke-width: 1; stroke-dasharray: none; stroke-linecap: butt; stroke-dashoffset: 0; stroke-linejoin: miter; stroke-miterlimit: 4; fill: rgb(255,87,87); fill-rule: nonzero; opacity: 1;"  transform=" translate(-82.05355243582967, -23.295366784970227)" d="m 83.891 26.859 c 0.10547 0.20703 0.16016 0.4375 0.15625 0.67188 c 0 0.41016 -0.16406 0.80469 -0.45312 1.0938 c -0.60547 0.60938 -1.5898 0.61719 -2.2031 0.015625 l -0.0625 -0.0625 v -0.015625 h -0.015625 c 0 -0.015625 0 -0.015625 -0.015625 -0.015625 v -0.015625 c -0.066406 -0.066406 -0.125 -0.14062 -0.17188 -0.21875 c -2.1797 -3.2734 -5.4453 -5.6758 -9.2188 -6.7812 c 0.75 6.9531 2.5781 11.625 5.4531 13.875 c 1.9375 1.4414 4.4141 1.957 6.7656 1.4062 c 1.6875 -0.23828 3.3125 -0.78906 4.7969 -1.625 c 0.078125 -0.0625 0.15625 -0.10938 0.25 -0.17188 c 1.1875 -0.73047 2.0938 -1.8359 2.5781 -3.1406 c 2.2031 -6.0469 -4.1719 -16.547 -8.4531 -22.312 c -0.79688 4.1719 -1.7188 11.734 0.59375 17.297 z" stroke-linecap="round" />
</g>
		<g transform="matrix(1.3333333333333335 0 0 1.3333333333333335 39.572916666666664 12.770659292922204)"  >
<path style="stroke: none; stroke-width: 1; stroke-dasharray: none; stroke-linecap: butt; stroke-dashoffset: 0; stroke-linejoin: miter; stroke-miterlimit: 4; fill: rgb(255,87,87); fill-rule: nonzero; opacity: 1;"  transform=" translate(-79.6796875, -59.577994469691646)" d="m 79.75 59.641 c -0.027344 -0.042969 -0.058594 -0.085937 -0.09375 -0.125 c -0.015625 -0.003906 -0.035156 0.003906 -0.046875 0.015625 c 0.050781 0.03125 0.097656 0.066406 0.14062 0.10938 z" stroke-linecap="round" />
</g>
		<g transform="matrix(1.3333333333333335 0 0 1.3333333333333335 44.625341492298524 -1.134666666666659)"  >
<path style="stroke: none; stroke-width: 1; stroke-dasharray: none; stroke-linecap: butt; stroke-dashoffset: 0; stroke-linejoin: miter; stroke-miterlimit: 4; fill: rgb(255,87,87); fill-rule: nonzero; opacity: 1;"  transform=" translate(-83.46900611922388, -49.149)" d="m 78.062 57.516 c 0.5625 0.64062 1.0938 1.3125 1.5938 2 c 9.1094 -2.9375 9.75 -13.406 8.9844 -20.734 c -0.96484 0.39062 -1.9648 0.69531 -2.9844 0.90625 c 0.25 5.0312 -0.40625 14 -7.5938 17.828 z" stroke-linecap="round" />
</g>
		<g transform="matrix(1.3333333333333335 0 0 1.3333333333333335 16.85416404241091 -8.562511574606784)"  >
<path style="stroke: none; stroke-width: 1; stroke-dasharray: none; stroke-linecap: butt; stroke-dashoffset: 0; stroke-linejoin: miter; stroke-miterlimit: 4; fill: rgb(255,87,87); fill-rule: nonzero; opacity: 1;"  transform=" translate(-62.64062303180818, -43.5781163190449)" d="m 59.703 43.578 c 0 1.1875 0.71484 2.2578 1.8125 2.7148 c 1.0977 0.45312 2.3633 0.20312 3.2031 -0.63672 s 1.0898 -2.1055 0.63672 -3.2031 c -0.45703 -1.0977 -1.5273 -1.8125 -2.7148 -1.8125 c -1.6211 0.003906 -2.9336 1.3164 -2.9375 2.9375 z" stroke-linecap="round" />
</g>
</g>
</g>
</g>
</g>
<g transform="matrix(3.3387036810595148 0 0 3.3387036810595148 238.13337048474082 399.2877699747686)"  >
<g style=""   >
		<g transform="matrix(1 0 0 1 0 -48.90894521594059)" clip-path="url(#CLIPPATH_49599)"  >
<clipPath id="CLIPPATH_49599" >
	<rect transform="matrix(1 0 0 1 0 48.9089452159406)" x="-66.66666666666667" y="-17.75772145072606" rx="0" ry="0" width="133.33333333333334" height="35.51544290145212" />
</clipPath>
<g style=""   >
		<g transform="matrix(1.3333333333333335 0 0 1.3333333333333335 -0.009806666666690944 34.82303909181494)"  >
<path style="stroke: none; stroke-width: 1; stroke-dasharray: none; stroke-linecap: butt; stroke-dashoffset: 0; stroke-linejoin: miter; stroke-miterlimit: 4; fill: rgb(255,87,87); fill-rule: nonzero; opacity: 1;"  transform=" translate(-49.99264499999998, -76.1172793188612)" d="m 23.328 74.844 c 0.078125 0.085938 0.14453 0.17969 0.20312 0.28125 c 0.015625 0.015625 0.03125 0.015625 0.03125 0.03125 c 1.3945 1.75 2.9648 3.3555 4.6875 4.7812 c 0.089844 0.0625 0.17578 0.13672 0.25 0.21875 c 0.007812 0.007812 0.019531 0.015625 0.03125 0.015625 c 2.4219 1.9922 5.1094 3.6328 7.9844 4.875 c 0.015625 0 0.015625 0 0.03125 0.015625 c 0.050781 0.015625 0.097656 0.035156 0.14062 0.0625 c 0.015625 -0.003906 0.035156 0.003906 0.046875 0.015625 c 8.5195 3.6055 18.141 3.582 26.641 -0.0625 c 2.9297 -1.2578 5.6641 -2.9258 8.125 -4.9531 l 0.23438 -0.1875 c 1.7422 -1.457 3.332 -3.0859 4.75 -4.8594 c 0.050781 -0.085937 0.11719 -0.16406 0.1875 -0.23438 c 1.6953 -2.1758 3.125 -4.5469 4.25 -7.0625 c -0.51953 -1.1523 -1.1016 -2.2734 -1.75 -3.3594 c -2.8984 8.0625 -9 14.566 -16.863 17.965 c -7.8633 3.4023 -16.781 3.4023 -24.641 -0.003907 c -7.8633 -3.4062 -13.961 -9.9141 -16.855 -17.977 c -0.65625 1.0859 -1.2422 2.2109 -1.75 3.375 c 1.1172 2.5078 2.5391 4.8711 4.2344 7.0312 c 0.015625 0.015625 0.015625 0.03125 0.03125 0.03125 z" stroke-linecap="round" />
</g>
		<g transform="matrix(1.3333333333333335 0 0 1.3333333333333335 -0.0107666666666546 19.68839086571585)"  >
<path style="stroke: none; stroke-width: 1; stroke-dasharray: none; stroke-linecap: butt; stroke-dashoffset: 0; stroke-linejoin: miter; stroke-miterlimit: 4; fill: rgb(255,87,87); fill-rule: nonzero; opacity: 1;"  transform=" translate(-49.991925, -64.76629314928688)" d="m 25.812 57.891 c -0.09375 0.13281 -0.21094 0.25 -0.34375 0.34375 h -0.015625 c -0.85547 0.90234 -1.6602 1.8516 -2.4062 2.8438 c 2.1133 7.9844 7.6602 14.617 15.141 18.113 s 16.129 3.4961 23.609 0 s 13.027 -10.129 15.141 -18.113 c -0.78906 -1.043 -1.6445 -2.0352 -2.5625 -2.9688 c -0.015625 -0.015625 -0.03125 -0.046875 -0.0625 -0.0625 c -6.3438 -6.5664 -15.07 -10.293 -24.203 -10.328 c -9.1289 -0.035156 -17.887 3.6211 -24.281 10.141 c 0 0.015625 0 0.03125 -0.015625 0.03125 z" stroke-linecap="round" />
</g>
		<g transform="matrix(1.3333333333333335 0 0 1.3333333333333335 -50.28315666666668 41.64587454414918)"  >
<path style="stroke: none; stroke-width: 1; stroke-dasharray: none; stroke-linecap: butt; stroke-dashoffset: 0; stroke-linejoin: miter; stroke-miterlimit: 4; fill: rgb(255,87,87); fill-rule: nonzero; opacity: 1;"  transform=" translate(-12.287632499999997, -81.23440590811188)" d="m 4.6875 88.078 c 0.41406 0 0.8125 -0.16406 1.1094 -0.45312 l 10.094 -10.109 h 5.5625 c -0.82812 -1 -1.6055 -2.043 -2.3281 -3.125 h -3.875 c -0.41406 -0.003906 -0.81641 0.16016 -1.1094 0.45312 l -10.562 10.562 c -0.60938 0.61328 -0.60938 1.6055 0 2.2188 c 0.29688 0.28906 0.69531 0.45312 1.1094 0.45312 z" stroke-linecap="round" />
</g>
		<g transform="matrix(1.3333333333333335 0 0 1.3333333333333335 -43.37553500000001 48.27072121081582)"  >
<path style="stroke: none; stroke-width: 1; stroke-dasharray: none; stroke-linecap: butt; stroke-dashoffset: 0; stroke-linejoin: miter; stroke-miterlimit: 4; fill: rgb(255,87,87); fill-rule: nonzero; opacity: 1;"  transform=" translate(-17.468348749999997, -86.20304090811186)" d="m 18.5 80.125 l -9.9062 9.9375 c -0.60547 0.60938 -0.60547 1.5938 0 2.2031 c 0.28906 0.30078 0.6875 0.46875 1.1016 0.46875 c 0.41406 0 0.8125 -0.16797 1.1016 -0.46875 l 9.4531 -9.4688 h 6.5469 c -1.2031 -0.97266 -2.3477 -2.0156 -3.4219 -3.125 h -3.7656 c -0.41406 -0.003906 -0.81641 0.16016 -1.1094 0.45312 z" stroke-linecap="round" />
</g>
		<g transform="matrix(1.3333333333333335 0 0 1.3333333333333335 -32.71758643754129 53.66680121081585)"  >
<path style="stroke: none; stroke-width: 1; stroke-dasharray: none; stroke-linecap: butt; stroke-dashoffset: 0; stroke-linejoin: miter; stroke-miterlimit: 4; fill: rgb(255,87,87); fill-rule: nonzero; opacity: 1;"  transform=" translate(-25.46181017184403, -90.25010090811188)" d="m 16.844 95.547 c 0.41797 0 0.81641 -0.16797 1.1094 -0.46875 l 6.9844 -7 h 10.703 c -2.0508 -0.85938 -4.0156 -1.9062 -5.875 -3.125 h -5.4688 c -0.41406 -0.003906 -0.81641 0.16016 -1.1094 0.45312 l -7.4531 7.4688 c -0.44141 0.44922 -0.57422 1.1211 -0.33203 1.7031 c 0.24219 0.58203 0.80859 0.96484 1.4414 0.96875 z" stroke-linecap="round" />
</g>
		<g transform="matrix(1.3333333333333335 0 0 1.3333333333333335 50.27302333333335 41.64673500000001)"  >
<path style="stroke: none; stroke-width: 1; stroke-dasharray: none; stroke-linecap: butt; stroke-dashoffset: 0; stroke-linejoin: miter; stroke-miterlimit: 4; fill: rgb(255,87,87); fill-rule: nonzero; opacity: 1;"  transform=" translate(-87.70476749999999, -81.23505125)" d="m 84.734 74.391 h -3.875 c -0.73438 1.0781 -1.5 2.125 -2.3281 3.125 h 5.5469 l 10.125 10.109 c 0.61719 0.60547 1.6016 0.60547 2.2188 0 c 0.60938 -0.61328 0.60938 -1.6055 0 -2.2188 l -10.594 -10.562 c -0.28906 -0.29297 -0.68359 -0.45703 -1.0938 -0.45312 z" stroke-linecap="round" />
</g>
		<g transform="matrix(1.3333333333333335 0 0 1.3333333333333335 43.3542016666667 48.27036111710207)"  >
<path style="stroke: none; stroke-width: 1; stroke-dasharray: none; stroke-linecap: butt; stroke-dashoffset: 0; stroke-linejoin: miter; stroke-miterlimit: 4; fill: rgb(255,87,87); fill-rule: nonzero; opacity: 1;"  transform=" translate(-82.51565125000002, -86.20277083782655)" d="m 90.312 92.734 c 0.41406 0 0.80859 -0.17188 1.0938 -0.46875 c 0.60547 -0.60938 0.60547 -1.5938 0 -2.2031 l -9.9219 -9.9375 c -0.29297 -0.29297 -0.69531 -0.45703 -1.1094 -0.45312 h -3.7812 c -1.0703 1.1133 -2.2148 2.1562 -3.4219 3.125 h 6.5625 l 9.4688 9.4688 c 0.29297 0.30078 0.69141 0.46875 1.1094 0.46875 z" stroke-linecap="round" />
</g>
		<g transform="matrix(1.3333333333333335 0 0 1.3333333333333335 32.66942333333333 53.666887783768765)"  >
<path style="stroke: none; stroke-width: 1; stroke-dasharray: none; stroke-linecap: butt; stroke-dashoffset: 0; stroke-linejoin: miter; stroke-miterlimit: 4; fill: rgb(255,87,87); fill-rule: nonzero; opacity: 1;"  transform=" translate(-74.5020675, -90.25016583782656)" d="m 82.047 95.094 c 0.29688 0.28906 0.69531 0.45312 1.1094 0.45312 c 0.41406 -0.003906 0.8125 -0.16797 1.1094 -0.45312 c 0.60938 -0.61328 0.60938 -1.6055 0 -2.2188 l -7.4688 -7.4688 c -0.29297 -0.29297 -0.69531 -0.45703 -1.1094 -0.45312 h -5.4844 c -1.875 1.2227 -3.8555 2.2695 -5.9219 3.125 h 10.766 z" stroke-linecap="round" />
</g>
		<g transform="matrix(1.3333333333333335 0 0 1.3333333333333335 -42.752370233950856 -35.606254480050985)"  >
<path style="stroke: none; stroke-width: 1; stroke-dasharray: none; stroke-linecap: butt; stroke-dashoffset: 0; stroke-linejoin: miter; stroke-miterlimit: 4; fill: rgb(255,87,87); fill-rule: nonzero; opacity: 1;"  transform=" translate(-17.93572232453686, -23.295309139961763)" d="m 10.781 35 c 0.089844 0.0625 0.18359 0.12109 0.28125 0.17188 c 0 0.007813 0.007812 0.015625 0.015625 0.015625 c 1.4805 0.83203 3.1016 1.3828 4.7812 1.625 c 2.3516 0.55078 4.8281 0.035156 6.7656 -1.4062 c 2.875 -2.25 4.7031 -6.9219 5.4531 -13.875 c -3.7734 1.1055 -7.0391 3.5078 -9.2188 6.7812 c -0.015625 0.015625 -0.03125 0.046875 -0.046875 0.0625 v 0.015625 h -0.015625 v 0.03125 h -0.015625 v 0.015625 h -0.015625 v 0.015625 h -0.015625 c 0 0.023437 -0.011719 0.046875 -0.03125 0.0625 l -0.046875 0.046875 c 0 0.007812 -0.007813 0.015625 -0.015625 0.015625 l -0.015625 0.015625 c -0.53516 0.57812 -1.418 0.66406 -2.0586 0.20312 c -0.63672 -0.46094 -0.83594 -1.3242 -0.45703 -2.0156 c 2.2812 -5.5781 1.375 -13.062 0.57812 -17.219 c -4.2969 5.7656 -10.672 16.266 -8.4531 22.312 c 0.46484 1.2969 1.3594 2.3984 2.5312 3.125 z" stroke-linecap="round" />
</g>
		<g transform="matrix(1.3333333333333335 0 0 1.3333333333333335 -39.66666 12.854666666666668)"  >
<path style="stroke: none; stroke-width: 1; stroke-dasharray: none; stroke-linecap: butt; stroke-dashoffset: 0; stroke-linejoin: miter; stroke-miterlimit: 4; fill: rgb(255,87,87); fill-rule: nonzero; opacity: 1;"  transform=" translate(-20.250005, -59.641)" d="m 20.375 59.516 c -0.015625 0.003906 -0.035156 -0.003906 -0.046875 -0.015625 c -0.074219 0.089844 -0.14062 0.18359 -0.20312 0.28125 c 0.074219 -0.097656 0.16016 -0.18359 0.25 -0.26562 z" stroke-linecap="round" />
</g>
		<g transform="matrix(1.3333333333333335 0 0 1.3333333333333335 -44.62560516236836 -1.1353333333333353)"  >
<path style="stroke: none; stroke-width: 1; stroke-dasharray: none; stroke-linecap: butt; stroke-dashoffset: 0; stroke-linejoin: miter; stroke-miterlimit: 4; fill: rgb(255,87,87); fill-rule: nonzero; opacity: 1;"  transform=" translate(-16.530796128223724, -49.1485)" d="m 11.359 38.797 c -0.76562 7.3281 -0.10938 17.766 8.9688 20.703 c 0.5 -0.6875 1.0391 -1.3516 1.6094 -1.9844 c -7.1875 -3.8281 -7.8438 -12.781 -7.5938 -17.812 c -1.0195 -0.21875 -2.0156 -0.51953 -2.9844 -0.90625 z" stroke-linecap="round" />
</g>
		<g transform="matrix(1.3333333333333335 0 0 1.3333333333333335 -16.874511574606796 -8.562164042410899)"  >
<path style="stroke: none; stroke-width: 1; stroke-dasharray: none; stroke-linecap: butt; stroke-dashoffset: 0; stroke-linejoin: miter; stroke-miterlimit: 4; fill: rgb(255,87,87); fill-rule: nonzero; opacity: 1;"  transform=" translate(-37.3441163190449, -43.578376968191826)" d="m 37.344 46.516 c 1.1875 0 2.2578 -0.71484 2.7148 -1.8125 c 0.45312 -1.0977 0.20312 -2.3633 -0.63672 -3.2031 s -2.1055 -1.0898 -3.2031 -0.63672 c -1.0977 0.45703 -1.8125 1.5273 -1.8125 2.7148 c 0.003906 1.6211 1.3164 2.9336 2.9375 2.9375 z" stroke-linecap="round" />
</g>
		<g transform="matrix(1.3333333333333335 0 0 1.3333333333333335 42.73806991443958 -35.6061776200397)"  >
<path style="stroke: none; stroke-width: 1; stroke-dasharray: none; stroke-linecap: butt; stroke-dashoffset: 0; stroke-linejoin: miter; stroke-miterlimit: 4; fill: rgb(255,87,87); fill-rule: nonzero; opacity: 1;"  transform=" translate(-82.05355243582967, -23.295366784970227)" d="m 83.891 26.859 c 0.10547 0.20703 0.16016 0.4375 0.15625 0.67188 c 0 0.41016 -0.16406 0.80469 -0.45312 1.0938 c -0.60547 0.60938 -1.5898 0.61719 -2.2031 0.015625 l -0.0625 -0.0625 v -0.015625 h -0.015625 c 0 -0.015625 0 -0.015625 -0.015625 -0.015625 v -0.015625 c -0.066406 -0.066406 -0.125 -0.14062 -0.17188 -0.21875 c -2.1797 -3.2734 -5.4453 -5.6758 -9.2188 -6.7812 c 0.75 6.9531 2.5781 11.625 5.4531 13.875 c 1.9375 1.4414 4.4141 1.957 6.7656 1.4062 c 1.6875 -0.23828 3.3125 -0.78906 4.7969 -1.625 c 0.078125 -0.0625 0.15625 -0.10938 0.25 -0.17188 c 1.1875 -0.73047 2.0938 -1.8359 2.5781 -3.1406 c 2.2031 -6.0469 -4.1719 -16.547 -8.4531 -22.312 c -0.79688 4.1719 -1.7188 11.734 0.59375 17.297 z" stroke-linecap="round" />
</g>
		<g transform="matrix(1.3333333333333335 0 0 1.3333333333333335 39.572916666666664 12.770659292922204)"  >
<path style="stroke: none; stroke-width: 1; stroke-dasharray: none; stroke-linecap: butt; stroke-dashoffset: 0; stroke-linejoin: miter; stroke-miterlimit: 4; fill: rgb(255,87,87); fill-rule: nonzero; opacity: 1;"  transform=" translate(-79.6796875, -59.577994469691646)" d="m 79.75 59.641 c -0.027344 -0.042969 -0.058594 -0.085937 -0.09375 -0.125 c -0.015625 -0.003906 -0.035156 0.003906 -0.046875 0.015625 c 0.050781 0.03125 0.097656 0.066406 0.14062 0.10938 z" stroke-linecap="round" />
</g>
		<g transform="matrix(1.3333333333333335 0 0 1.3333333333333335 44.625341492298524 -1.134666666666659)"  >
<path style="stroke: none; stroke-width: 1; stroke-dasharray: none; stroke-linecap: butt; stroke-dashoffset: 0; stroke-linejoin: miter; stroke-miterlimit: 4; fill: rgb(255,87,87); fill-rule: nonzero; opacity: 1;"  transform=" translate(-83.46900611922388, -49.149)" d="m 78.062 57.516 c 0.5625 0.64062 1.0938 1.3125 1.5938 2 c 9.1094 -2.9375 9.75 -13.406 8.9844 -20.734 c -0.96484 0.39062 -1.9648 0.69531 -2.9844 0.90625 c 0.25 5.0312 -0.40625 14 -7.5938 17.828 z" stroke-linecap="round" />
</g>
		<g transform="matrix(1.3333333333333335 0 0 1.3333333333333335 16.85416404241091 -8.562511574606784)"  >
<path style="stroke: none; stroke-width: 1; stroke-dasharray: none; stroke-linecap: butt; stroke-dashoffset: 0; stroke-linejoin: miter; stroke-miterlimit: 4; fill: rgb(255,87,87); fill-rule: nonzero; opacity: 1;"  transform=" translate(-62.64062303180818, -43.5781163190449)" d="m 59.703 43.578 c 0 1.1875 0.71484 2.2578 1.8125 2.7148 c 1.0977 0.45312 2.3633 0.20312 3.2031 -0.63672 s 1.0898 -2.1055 0.63672 -3.2031 c -0.45703 -1.0977 -1.5273 -1.8125 -2.7148 -1.8125 c -1.6211 0.003906 -2.9336 1.3164 -2.9375 2.9375 z" stroke-linecap="round" />
</g>
</g>
</g>
</g>
</g>
</svg>